<?xml version="1.0" encoding="UTF-8" standalone="no"?>
<!DOCTYPE svg PUBLIC "-//W3C//DTD SVG 1.1//EN" "http://www.w3.org/Graphics/SVG/1.1/DTD/svg11.dtd">
<svg width="100%" height="100%" viewBox="0 0 772 772" version="1.1" xmlns="http://www.w3.org/2000/svg" xmlns:xlink="http://www.w3.org/1999/xlink" xml:space="preserve" xmlns:serif="http://www.serif.com/" style="fill-rule:evenodd;clip-rule:evenodd;stroke-linejoin:round;stroke-miterlimit:2;">
    <g transform="matrix(0.5,-6.12323e-17,6.12323e-17,-1,1.13687e-13,772)">
        <rect x="0" y="0" width="1544" height="772" style="fill:url(#_Radial1);"/>
    </g>
    <g transform="matrix(1.48039,-0.231422,0.218176,1.39565,-329.03,260.931)">
        <g transform="matrix(9.21715,0,0,8.0623,327.775,206.025)">
            <path d="M21,3C21.552,3 22,3.448 22,4L22,20C22,20.552 21.552,21 21,21L3,21C2.448,21 2,20.552 2,20L2,4C2,3.448 2.448,3 3,3L21,3ZM20,5L4,5L4,19L20,19L20,5ZM18,7L18,9L6,9L6,7L18,7Z" style="fill:rgb(255,148,20);fill-rule:nonzero;"/>
        </g>
        <g transform="matrix(3.39101,-0.639445,0.724436,3.84172,383.387,277.764)">
            <path d="M15.387,13.498L17.94,20.512L13.242,22.222L10.689,15.208L6.79,17.653L8.409,1.633L19.946,12.865L15.387,13.498ZM15.377,19.316L12.662,11.857L15.621,11.446L9.982,5.956L9.191,13.786L11.722,12.199L14.437,19.658L15.377,19.316Z" style="fill:white;fill-rule:nonzero;"/>
        </g>
    </g>
    <g transform="matrix(1,0,0,1,-338.936,-155.783)">
        <path d="M452.236,299.333L446.369,282.6L440.502,299.333L452.236,299.333ZM455.702,309.267L437.036,309.267L434.036,318L420.102,318L439.236,267.733L453.502,267.733L472.636,318L458.702,318L455.702,309.267Z" style="fill:rgb(255,148,20);fill-rule:nonzero;"/>
        <path d="M488.236,300.8C488.236,301.911 488.436,302.944 488.836,303.9C489.236,304.856 489.78,305.689 490.469,306.4C491.158,307.111 491.98,307.667 492.936,308.067C493.891,308.467 494.925,308.667 496.036,308.667C497.102,308.667 498.114,308.467 499.069,308.067C500.025,307.667 500.847,307.111 501.536,306.4C502.225,305.689 502.78,304.867 503.202,303.933C503.625,303 503.836,302 503.836,300.933C503.836,299.867 503.625,298.856 503.202,297.9C502.78,296.944 502.225,296.111 501.536,295.4C500.847,294.689 500.025,294.133 499.069,293.733C498.114,293.333 497.102,293.133 496.036,293.133C494.969,293.133 493.958,293.333 493.002,293.733C492.047,294.133 491.225,294.689 490.536,295.4C489.847,296.111 489.291,296.922 488.869,297.833C488.447,298.744 488.236,299.733 488.236,300.8ZM503.436,262.667L515.569,262.667L515.569,318L503.436,318L503.436,314.2C500.858,317.444 497.369,319.067 492.969,319.067C490.48,319.067 488.191,318.6 486.102,317.667C484.014,316.733 482.191,315.444 480.636,313.8C479.08,312.156 477.869,310.222 477.002,308C476.136,305.778 475.702,303.378 475.702,300.8C475.702,298.356 476.114,296.033 476.936,293.833C477.758,291.633 478.925,289.711 480.436,288.067C481.947,286.422 483.758,285.122 485.869,284.167C487.98,283.211 490.302,282.733 492.836,282.733C497.102,282.733 500.636,284.222 503.436,287.2L503.436,262.667Z" style="fill:rgb(255,148,20);fill-rule:nonzero;"/>
        <path d="M533.902,283.8L542.036,301.333L550.302,283.8L563.769,283.8L545.969,318L537.902,318L520.302,283.8L533.902,283.8Z" style="fill:rgb(255,148,20);fill-rule:nonzero;"/>
        <path d="M577.436,300.8C577.436,301.911 577.636,302.944 578.036,303.9C578.436,304.856 578.98,305.689 579.669,306.4C580.358,307.111 581.18,307.667 582.136,308.067C583.091,308.467 584.125,308.667 585.236,308.667C586.302,308.667 587.314,308.467 588.269,308.067C589.225,307.667 590.047,307.111 590.736,306.4C591.425,305.689 591.98,304.867 592.402,303.933C592.825,303 593.036,302 593.036,300.933C593.036,299.867 592.825,298.856 592.402,297.9C591.98,296.944 591.425,296.111 590.736,295.4C590.047,294.689 589.225,294.133 588.269,293.733C587.314,293.333 586.302,293.133 585.236,293.133C584.125,293.133 583.091,293.333 582.136,293.733C581.18,294.133 580.358,294.689 579.669,295.4C578.98,296.111 578.436,296.922 578.036,297.833C577.636,298.744 577.436,299.733 577.436,300.8ZM592.636,283.8L604.769,283.8L604.769,318L592.636,318L592.636,314.2C590.058,317.444 586.569,319.067 582.169,319.067C579.68,319.067 577.391,318.611 575.302,317.7C573.214,316.789 571.391,315.511 569.836,313.867C568.28,312.222 567.069,310.289 566.202,308.067C565.336,305.844 564.902,303.422 564.902,300.8C564.902,298.356 565.325,296.033 566.169,293.833C567.014,291.633 568.191,289.711 569.702,288.067C571.214,286.422 573.014,285.122 575.102,284.167C577.191,283.211 579.502,282.733 582.036,282.733C586.302,282.733 589.836,284.222 592.636,287.2L592.636,283.8Z" style="fill:rgb(255,148,20);fill-rule:nonzero;"/>
        <path d="M612.969,283.8L625.036,283.8L625.036,288.133C626.68,286.133 628.347,284.789 630.036,284.1C631.725,283.411 633.702,283.067 635.969,283.067C638.369,283.067 640.425,283.456 642.136,284.233C643.847,285.011 645.302,286.111 646.502,287.533C647.48,288.689 648.147,289.978 648.502,291.4C648.858,292.822 649.036,294.444 649.036,296.267L649.036,318L636.969,318L636.969,300.733C636.969,299.044 636.847,297.678 636.602,296.633C636.358,295.589 635.925,294.756 635.302,294.133C634.769,293.6 634.169,293.222 633.502,293C632.836,292.778 632.125,292.667 631.369,292.667C629.325,292.667 627.758,293.278 626.669,294.5C625.58,295.722 625.036,297.467 625.036,299.733L625.036,318L612.969,318L612.969,283.8Z" style="fill:rgb(255,148,20);fill-rule:nonzero;"/>
        <path d="M683.036,294.867C680.947,293.444 678.836,292.733 676.702,292.733C675.547,292.733 674.469,292.933 673.469,293.333C672.469,293.733 671.591,294.3 670.836,295.033C670.08,295.767 669.491,296.633 669.069,297.633C668.647,298.633 668.436,299.756 668.436,301C668.436,302.2 668.647,303.3 669.069,304.3C669.491,305.3 670.069,306.167 670.802,306.9C671.536,307.633 672.414,308.2 673.436,308.6C674.458,309 675.547,309.2 676.702,309.2C678.969,309.2 681.08,308.422 683.036,306.867L683.036,317.133C680.058,318.422 677.236,319.067 674.569,319.067C672.08,319.067 669.714,318.644 667.469,317.8C665.225,316.956 663.247,315.744 661.536,314.167C659.825,312.589 658.458,310.7 657.436,308.5C656.414,306.3 655.902,303.844 655.902,301.133C655.902,298.422 656.391,295.944 657.369,293.7C658.347,291.456 659.68,289.522 661.369,287.9C663.058,286.278 665.069,285.011 667.402,284.1C669.736,283.189 672.236,282.733 674.902,282.733C677.836,282.733 680.547,283.356 683.036,284.6L683.036,294.867Z" style="fill:rgb(255,148,20);fill-rule:nonzero;"/>
        <path d="M714.902,295.933C714.502,294.244 713.68,292.889 712.436,291.867C711.191,290.844 709.68,290.333 707.902,290.333C706.036,290.333 704.514,290.822 703.336,291.8C702.158,292.778 701.414,294.156 701.102,295.933L714.902,295.933ZM700.769,302.933C700.769,308.133 703.214,310.733 708.102,310.733C710.725,310.733 712.702,309.667 714.036,307.533L725.702,307.533C723.347,315.356 717.458,319.267 708.036,319.267C705.147,319.267 702.502,318.833 700.102,317.967C697.702,317.1 695.647,315.867 693.936,314.267C692.225,312.667 690.902,310.756 689.969,308.533C689.036,306.311 688.569,303.822 688.569,301.067C688.569,298.222 689.014,295.656 689.902,293.367C690.791,291.078 692.058,289.133 693.702,287.533C695.347,285.933 697.336,284.7 699.669,283.833C702.002,282.967 704.636,282.533 707.569,282.533C710.458,282.533 713.058,282.967 715.369,283.833C717.68,284.7 719.636,285.956 721.236,287.6C722.836,289.244 724.058,291.256 724.902,293.633C725.747,296.011 726.169,298.689 726.169,301.667L726.169,302.933L700.769,302.933Z" style="fill:rgb(255,148,20);fill-rule:nonzero;"/>
        <path d="M744.236,300.8C744.236,301.911 744.436,302.944 744.836,303.9C745.236,304.856 745.78,305.689 746.469,306.4C747.158,307.111 747.98,307.667 748.936,308.067C749.891,308.467 750.925,308.667 752.036,308.667C753.102,308.667 754.114,308.467 755.069,308.067C756.025,307.667 756.847,307.111 757.536,306.4C758.225,305.689 758.78,304.867 759.202,303.933C759.625,303 759.836,302 759.836,300.933C759.836,299.867 759.625,298.856 759.202,297.9C758.78,296.944 758.225,296.111 757.536,295.4C756.847,294.689 756.025,294.133 755.069,293.733C754.114,293.333 753.102,293.133 752.036,293.133C750.969,293.133 749.958,293.333 749.002,293.733C748.047,294.133 747.225,294.689 746.536,295.4C745.847,296.111 745.291,296.922 744.869,297.833C744.447,298.744 744.236,299.733 744.236,300.8ZM759.436,262.667L771.569,262.667L771.569,318L759.436,318L759.436,314.2C756.858,317.444 753.369,319.067 748.969,319.067C746.48,319.067 744.191,318.6 742.102,317.667C740.014,316.733 738.191,315.444 736.636,313.8C735.08,312.156 733.869,310.222 733.002,308C732.136,305.778 731.702,303.378 731.702,300.8C731.702,298.356 732.114,296.033 732.936,293.833C733.758,291.633 734.925,289.711 736.436,288.067C737.947,286.422 739.758,285.122 741.869,284.167C743.98,283.211 746.302,282.733 748.836,282.733C753.102,282.733 756.636,284.222 759.436,287.2L759.436,262.667Z" style="fill:rgb(255,148,20);fill-rule:nonzero;"/>
        <path d="M831.169,280.6C829.747,279.444 828.325,278.589 826.902,278.033C825.48,277.478 824.102,277.2 822.769,277.2C821.08,277.2 819.702,277.6 818.636,278.4C817.569,279.2 817.036,280.244 817.036,281.533C817.036,282.422 817.302,283.156 817.836,283.733C818.369,284.311 819.069,284.811 819.936,285.233C820.802,285.656 821.78,286.022 822.869,286.333C823.958,286.644 825.036,286.978 826.102,287.333C830.369,288.756 833.491,290.656 835.469,293.033C837.447,295.411 838.436,298.511 838.436,302.333C838.436,304.911 838.002,307.244 837.136,309.333C836.269,311.422 835.002,313.211 833.336,314.7C831.669,316.189 829.625,317.344 827.202,318.167C824.78,318.989 822.036,319.4 818.969,319.4C812.614,319.4 806.725,317.511 801.302,313.733L806.902,303.2C808.858,304.933 810.791,306.222 812.702,307.067C814.614,307.911 816.502,308.333 818.369,308.333C820.502,308.333 822.091,307.844 823.136,306.867C824.18,305.889 824.702,304.778 824.702,303.533C824.702,302.778 824.569,302.122 824.302,301.567C824.036,301.011 823.591,300.5 822.969,300.033C822.347,299.567 821.536,299.133 820.536,298.733C819.536,298.333 818.325,297.889 816.902,297.4C815.214,296.867 813.558,296.278 811.936,295.633C810.314,294.989 808.869,294.133 807.602,293.067C806.336,292 805.314,290.656 804.536,289.033C803.758,287.411 803.369,285.356 803.369,282.867C803.369,280.378 803.78,278.122 804.602,276.1C805.425,274.078 806.58,272.344 808.069,270.9C809.558,269.456 811.38,268.333 813.536,267.533C815.691,266.733 818.102,266.333 820.769,266.333C823.258,266.333 825.858,266.678 828.569,267.367C831.28,268.056 833.88,269.067 836.369,270.4L831.169,280.6Z" style="fill:rgb(255,148,20);fill-rule:nonzero;"/>
        <path d="M871.302,294.867C869.214,293.444 867.102,292.733 864.969,292.733C863.814,292.733 862.736,292.933 861.736,293.333C860.736,293.733 859.858,294.3 859.102,295.033C858.347,295.767 857.758,296.633 857.336,297.633C856.914,298.633 856.702,299.756 856.702,301C856.702,302.2 856.914,303.3 857.336,304.3C857.758,305.3 858.336,306.167 859.069,306.9C859.802,307.633 860.68,308.2 861.702,308.6C862.725,309 863.814,309.2 864.969,309.2C867.236,309.2 869.347,308.422 871.302,306.867L871.302,317.133C868.325,318.422 865.502,319.067 862.836,319.067C860.347,319.067 857.98,318.644 855.736,317.8C853.491,316.956 851.514,315.744 849.802,314.167C848.091,312.589 846.725,310.7 845.702,308.5C844.68,306.3 844.169,303.844 844.169,301.133C844.169,298.422 844.658,295.944 845.636,293.7C846.614,291.456 847.947,289.522 849.636,287.9C851.325,286.278 853.336,285.011 855.669,284.1C858.002,283.189 860.502,282.733 863.169,282.733C866.102,282.733 868.814,283.356 871.302,284.6L871.302,294.867Z" style="fill:rgb(255,148,20);fill-rule:nonzero;"/>
        <path d="M878.169,283.8L890.236,283.8L890.236,289.4C891.525,287.356 893.102,285.789 894.969,284.7C896.836,283.611 899.014,283.067 901.502,283.067L902.536,283.067C902.914,283.067 903.347,283.111 903.836,283.2L903.836,294.733C902.236,293.933 900.502,293.533 898.636,293.533C895.836,293.533 893.736,294.367 892.336,296.033C890.936,297.7 890.236,300.133 890.236,303.333L890.236,318L878.169,318L878.169,283.8Z" style="fill:rgb(255,148,20);fill-rule:nonzero;"/>
        <path d="M921.302,283.8L921.302,318L909.236,318L909.236,283.8L921.302,283.8ZM908.436,270.667C908.436,269.733 908.614,268.856 908.969,268.033C909.325,267.211 909.814,266.489 910.436,265.867C911.058,265.244 911.78,264.756 912.602,264.4C913.425,264.044 914.302,263.867 915.236,263.867C916.169,263.867 917.047,264.044 917.869,264.4C918.691,264.756 919.414,265.244 920.036,265.867C920.658,266.489 921.147,267.211 921.502,268.033C921.858,268.856 922.036,269.733 922.036,270.667C922.036,271.6 921.858,272.478 921.502,273.3C921.147,274.122 920.658,274.844 920.036,275.467C919.414,276.089 918.691,276.578 917.869,276.933C917.047,277.289 916.169,277.467 915.236,277.467C914.302,277.467 913.425,277.289 912.602,276.933C911.78,276.578 911.058,276.089 910.436,275.467C909.814,274.844 909.325,274.122 908.969,273.3C908.614,272.478 908.436,271.6 908.436,270.667Z" style="fill:rgb(255,148,20);fill-rule:nonzero;"/>
        <path d="M956.836,301C956.836,299.933 956.647,298.922 956.269,297.967C955.891,297.011 955.347,296.178 954.636,295.467C953.925,294.756 953.091,294.189 952.136,293.767C951.18,293.344 950.147,293.133 949.036,293.133C947.969,293.133 946.969,293.333 946.036,293.733C945.102,294.133 944.291,294.689 943.602,295.4C942.914,296.111 942.358,296.944 941.936,297.9C941.514,298.856 941.302,299.867 941.302,300.933C941.302,302 941.502,303 941.902,303.933C942.302,304.867 942.858,305.678 943.569,306.367C944.28,307.056 945.114,307.611 946.069,308.033C947.025,308.456 948.036,308.667 949.102,308.667C950.169,308.667 951.169,308.467 952.102,308.067C953.036,307.667 953.847,307.111 954.536,306.4C955.225,305.689 955.78,304.867 956.202,303.933C956.625,303 956.836,302.022 956.836,301ZM941.636,335.067L929.569,335.067L929.569,283.8L941.636,283.8L941.636,287.6C944.214,284.356 947.725,282.733 952.169,282.733C954.614,282.733 956.891,283.211 959.002,284.167C961.114,285.122 962.947,286.422 964.502,288.067C966.058,289.711 967.269,291.644 968.136,293.867C969.002,296.089 969.436,298.467 969.436,301C969.436,303.533 969.002,305.889 968.136,308.067C967.269,310.244 966.069,312.156 964.536,313.8C963.002,315.444 961.191,316.733 959.102,317.667C957.014,318.6 954.747,319.067 952.302,319.067C948.036,319.067 944.48,317.6 941.636,314.667L941.636,335.067Z" style="fill:rgb(255,148,20);fill-rule:nonzero;"/>
        <path d="M990.236,293.867L990.236,318L978.169,318L978.169,293.867L974.169,293.867L974.169,283.8L978.169,283.8L978.169,273.533L990.236,273.533L990.236,283.8L997.102,283.8L997.102,293.867L990.236,293.867Z" style="fill:rgb(255,148,20);fill-rule:nonzero;"/>
        <path d="M1024.64,292.6C1022.41,291.444 1020.24,290.867 1018.1,290.867C1016.99,290.867 1016.09,291.089 1015.4,291.533C1014.71,291.978 1014.37,292.578 1014.37,293.333C1014.37,293.733 1014.43,294.056 1014.54,294.3C1014.65,294.544 1014.89,294.778 1015.27,295C1015.65,295.222 1016.2,295.422 1016.94,295.6C1017.67,295.778 1018.64,296 1019.84,296.267C1023.17,296.933 1025.66,298.122 1027.3,299.833C1028.95,301.544 1029.77,303.733 1029.77,306.4C1029.77,308.4 1029.37,310.2 1028.57,311.8C1027.77,313.4 1026.66,314.744 1025.24,315.833C1023.81,316.922 1022.1,317.767 1020.1,318.367C1018.1,318.967 1015.9,319.267 1013.5,319.267C1008.88,319.267 1004.33,317.956 999.836,315.333L1004.24,306.8C1007.61,309.111 1010.81,310.267 1013.84,310.267C1014.95,310.267 1015.86,310.022 1016.57,309.533C1017.28,309.044 1017.64,308.422 1017.64,307.667C1017.64,307.222 1017.58,306.856 1017.47,306.567C1017.36,306.278 1017.12,306.011 1016.77,305.767C1016.41,305.522 1015.89,305.3 1015.2,305.1C1014.51,304.9 1013.61,304.689 1012.5,304.467C1008.77,303.711 1006.16,302.589 1004.67,301.1C1003.18,299.611 1002.44,297.556 1002.44,294.933C1002.44,293.022 1002.79,291.3 1003.5,289.767C1004.21,288.233 1005.24,286.933 1006.57,285.867C1007.9,284.8 1009.51,283.978 1011.4,283.4C1013.29,282.822 1015.39,282.533 1017.7,282.533C1021.48,282.533 1025.15,283.267 1028.7,284.733L1024.64,292.6Z" style="fill:rgb(255,148,20);fill-rule:nonzero;"/>
        <path d="M427.184,442.254C427.184,435.954 428.346,430.085 430.671,424.648C432.996,419.21 436.221,414.467 440.346,410.417C444.471,406.367 449.402,403.198 455.14,400.91C460.877,398.623 467.196,397.479 474.096,397.479C480.921,397.479 487.221,398.623 492.996,400.91C498.771,403.198 503.74,406.367 507.902,410.417C512.065,414.467 515.309,419.21 517.634,424.648C519.959,430.085 521.121,435.954 521.121,442.254C521.121,448.104 520.165,453.542 518.252,458.567C516.34,463.592 513.584,468.054 509.984,471.954L524.384,487.029L504.134,490.179L496.371,482.192C493.071,483.692 489.565,484.873 485.852,485.735C482.14,486.598 478.221,487.029 474.096,487.029C467.196,487.029 460.877,485.885 455.14,483.598C449.402,481.31 444.471,478.142 440.346,474.092C436.221,470.042 432.996,465.298 430.671,459.86C428.346,454.423 427.184,448.554 427.184,442.254ZM450.246,442.254C450.246,445.629 450.884,448.742 452.159,451.592C453.434,454.442 455.159,456.917 457.334,459.017C459.509,461.117 462.04,462.748 464.927,463.91C467.815,465.073 470.871,465.654 474.096,465.654C476.046,465.654 477.996,465.429 479.946,464.979L467.346,451.704L488.159,449.117L494.009,455.304C496.709,451.554 498.059,447.204 498.059,442.254C498.059,438.879 497.421,435.767 496.146,432.917C494.871,430.067 493.127,427.592 490.915,425.492C488.702,423.392 486.152,421.76 483.265,420.598C480.377,419.435 477.321,418.854 474.096,418.854C470.871,418.854 467.815,419.435 464.927,420.598C462.04,421.76 459.509,423.392 457.334,425.492C455.159,427.592 453.434,430.067 452.159,432.917C450.884,435.767 450.246,438.879 450.246,442.254Z" style="fill:rgb(255,148,20);fill-rule:nonzero;"/>
        <path d="M553.521,426.954L553.521,459.467C553.521,466.592 556.971,470.154 563.871,470.154C570.771,470.154 574.221,466.592 574.221,459.467L574.221,426.954L594.584,426.954L594.584,463.404C594.584,471.204 592.015,477.054 586.877,480.954C581.74,484.854 574.071,486.804 563.871,486.804C553.671,486.804 546.002,484.854 540.865,480.954C535.728,477.054 533.159,471.204 533.159,463.404L533.159,426.954L553.521,426.954Z" style="fill:rgb(255,148,20);fill-rule:nonzero;"/>
        <path d="M628.784,426.954L628.784,484.667L608.421,484.667L608.421,426.954L628.784,426.954ZM607.071,404.792C607.071,403.217 607.371,401.735 607.971,400.348C608.571,398.96 609.396,397.742 610.446,396.692C611.496,395.642 612.715,394.817 614.103,394.217C615.49,393.617 616.971,393.317 618.546,393.317C620.121,393.317 621.603,393.617 622.99,394.217C624.377,394.817 625.596,395.642 626.646,396.692C627.696,397.742 628.521,398.96 629.121,400.348C629.721,401.735 630.021,403.217 630.021,404.792C630.021,406.367 629.721,407.848 629.121,409.235C628.521,410.623 627.696,411.842 626.646,412.892C625.596,413.942 624.377,414.767 622.99,415.367C621.603,415.967 620.121,416.267 618.546,416.267C616.971,416.267 615.49,415.967 614.103,415.367C612.715,414.767 611.496,413.942 610.446,412.892C609.396,411.842 608.571,410.623 607.971,409.235C607.371,407.848 607.071,406.367 607.071,404.792Z" style="fill:rgb(255,148,20);fill-rule:nonzero;"/>
        <path d="M686.271,445.629C682.746,443.229 679.184,442.029 675.584,442.029C673.634,442.029 671.815,442.367 670.127,443.042C668.44,443.717 666.959,444.673 665.684,445.91C664.409,447.148 663.415,448.61 662.703,450.298C661.99,451.985 661.634,453.879 661.634,455.979C661.634,458.004 661.99,459.86 662.703,461.548C663.415,463.235 664.39,464.698 665.627,465.935C666.865,467.173 668.346,468.129 670.071,468.804C671.796,469.479 673.634,469.817 675.584,469.817C679.409,469.817 682.971,468.504 686.271,465.879L686.271,483.204C681.246,485.379 676.484,486.467 671.984,486.467C667.784,486.467 663.79,485.754 660.002,484.329C656.215,482.904 652.877,480.86 649.99,478.198C647.103,475.535 644.796,472.348 643.071,468.635C641.346,464.923 640.484,460.779 640.484,456.204C640.484,451.629 641.309,447.448 642.959,443.66C644.609,439.873 646.859,436.61 649.709,433.873C652.559,431.135 655.953,428.998 659.89,427.46C663.828,425.923 668.046,425.154 672.546,425.154C677.496,425.154 682.071,426.204 686.271,428.304L686.271,445.629Z" style="fill:rgb(255,148,20);fill-rule:nonzero;"/>
        <path d="M721.034,391.292L721.034,447.767L742.409,426.954L770.309,426.954L741.396,453.617L771.996,484.667L743.421,484.667L721.034,461.154L721.034,484.667L700.671,484.667L700.671,391.292L721.034,391.292Z" style="fill:rgb(255,148,20);fill-rule:nonzero;"/>
        <path d="M781.109,484.667L781.109,399.842L803.159,399.842L843.884,451.704L843.884,399.842L865.821,399.842L865.821,484.667L843.884,484.667L803.159,432.804L803.159,484.667L781.109,484.667Z" style="fill:rgb(255,148,20);fill-rule:nonzero;"/>
        <path d="M901.821,455.642C901.821,457.517 902.159,459.26 902.834,460.873C903.509,462.485 904.428,463.892 905.59,465.092C906.752,466.292 908.14,467.229 909.752,467.904C911.365,468.579 913.109,468.917 914.984,468.917C916.784,468.917 918.49,468.579 920.103,467.904C921.715,467.229 923.103,466.292 924.265,465.092C925.428,463.892 926.365,462.504 927.078,460.929C927.79,459.354 928.146,457.667 928.146,455.867C928.146,454.067 927.79,452.36 927.078,450.748C926.365,449.135 925.428,447.729 924.265,446.529C923.103,445.329 921.715,444.392 920.103,443.717C918.49,443.042 916.784,442.704 914.984,442.704C913.109,442.704 911.365,443.042 909.752,443.717C908.14,444.392 906.752,445.329 905.59,446.529C904.428,447.729 903.509,449.098 902.834,450.635C902.159,452.173 901.821,453.842 901.821,455.642ZM927.471,426.954L947.946,426.954L947.946,484.667L927.471,484.667L927.471,478.254C923.121,483.729 917.234,486.467 909.809,486.467C905.609,486.467 901.746,485.698 898.221,484.16C894.696,482.623 891.621,480.467 888.996,477.692C886.371,474.917 884.328,471.654 882.865,467.904C881.402,464.154 880.671,460.067 880.671,455.642C880.671,451.517 881.384,447.598 882.809,443.885C884.234,440.173 886.221,436.929 888.771,434.154C891.321,431.379 894.359,429.185 897.884,427.573C901.409,425.96 905.309,425.154 909.584,425.154C916.784,425.154 922.746,427.667 927.471,432.692L927.471,426.954Z" style="fill:rgb(255,148,20);fill-rule:nonzero;"/>
        <path d="M978.884,426.954L992.609,456.542L1006.56,426.954L1029.28,426.954L999.246,484.667L985.634,484.667L955.934,426.954L978.884,426.954Z" style="fill:rgb(255,148,20);fill-rule:nonzero;"/>
    </g>
    <defs>
        <radialGradient id="_Radial1" cx="0" cy="0" r="1" gradientUnits="userSpaceOnUse" gradientTransform="matrix(1574.88,-779.72,-779.72,-1574.88,0,772)"><stop offset="0" style="stop-color:rgb(48,35,174);stop-opacity:1"/><stop offset="1" style="stop-color:rgb(200,109,215);stop-opacity:1"/></radialGradient>
    </defs>
</svg>
